HIERARCHY
ROOT Hips
{
	OFFSET 0.000000 0.000000 0.000000
	CHANNELS 6 Xposition Yposition Zposition Zrotation Yrotation Xrotation 
	JOINT LHipJoint
	{
		OFFSET 0.000000 0.000000 0.000000
		CHANNELS 3 Zrotation Yrotation Xrotation
		JOINT LeftUpLeg
		{
			OFFSET 1.363060 -1.794630 0.839290
			CHANNELS 3 Zrotation Yrotation Xrotation
			JOINT LeftLeg
			{
				OFFSET 2.448110 -6.726130 0.000000
				CHANNELS 3 Zrotation Yrotation Xrotation
				JOINT LeftFoot
				{
					OFFSET 2.562200 -7.039590 0.000000
					CHANNELS 3 Zrotation Yrotation Xrotation
					JOINT LeftToeBase
					{
						OFFSET 0.157640 -0.433110 2.322550
						CHANNELS 3 Zrotation Yrotation Xrotation
						End Site
						{
							OFFSET 0.000000 0.000000 0.000000
						}
					}
				}
			}
		}
	}
	JOINT RHipJoint
	{
		OFFSET 0.000000 0.000000 0.000000
		CHANNELS 3 Zrotation Yrotation Xrotation
		JOINT RightUpLeg
		{
			OFFSET -1.305520 -1.794630 0.839290
			CHANNELS 3 Zrotation Yrotation Xrotation
			JOINT RightLeg
			{
				OFFSET -2.542530 -6.985550 0.000000
				CHANNELS 3 Zrotation Yrotation Xrotation
				JOINT RightFoot
				{
					OFFSET -2.568260 -7.056230 0.000000
					CHANNELS 3 Zrotation Yrotation Xrotation
					JOINT RightToeBase
					{
						OFFSET -0.164730 -0.452590 2.363150
						CHANNELS 3 Zrotation Yrotation Xrotation
						End Site
						{
							OFFSET 0.000000 0.000000 0.000000
						}
					}
				}
			}
		}
	}
	JOINT LowerBack
	{
		OFFSET 0.000000 0.000000 0.000000
		CHANNELS 3 Zrotation Yrotation Xrotation
		JOINT Spine
		{
			OFFSET 0.028270 2.035590 -0.193380
			CHANNELS 3 Zrotation Yrotation Xrotation
			JOINT Spine1
			{
				OFFSET 0.056720 2.048850 -0.042750
				CHANNELS 3 Zrotation Yrotation Xrotation
				JOINT Neck
				{
					OFFSET 0.000000 0.000000 0.000000
					CHANNELS 3 Zrotation Yrotation Xrotation
					JOINT Neck1
					{
						OFFSET -0.054170 1.746240 0.172020
						CHANNELS 3 Zrotation Yrotation Xrotation
						JOINT Head
						{
							OFFSET 0.104070 1.761360 -0.123970
							CHANNELS 3 Zrotation Yrotation Xrotation
							End Site
							{
								OFFSET 0.000000 0.000000 0.000000
							}
						}
					}
				}
				JOINT LeftShoulder
				{
					OFFSET 0.000000 0.000000 0.000000
					CHANNELS 3 Zrotation Yrotation Xrotation
					JOINT LeftArm
					{
						OFFSET 3.362410 1.200890 -0.311210
						CHANNELS 3 Zrotation Yrotation Xrotation
						JOINT LeftForeArm
						{
							OFFSET 4.983000 -0.000000 -0.000000
							CHANNELS 3 Zrotation Yrotation Xrotation
							JOINT LeftHand
							{
								OFFSET 3.483560 -0.000000 -0.000000
								CHANNELS 3 Zrotation Yrotation Xrotation
								JOINT LeftFingerBase
								{
									OFFSET 0.000000 0.000000 0.000000
									CHANNELS 3 Zrotation Yrotation Xrotation
									JOINT LeftHandIndex1
									{
										OFFSET 0.715260 -0.000000 -0.000000
										CHANNELS 3 Zrotation Yrotation Xrotation
										End Site
										{
											OFFSET 0.000000 0.000000 0.000000
										}
									}
								}
								JOINT LThumb
								{
									OFFSET 0.000000 0.000000 0.000000
									CHANNELS 3 Zrotation Yrotation Xrotation
									End Site
									{
										OFFSET 0.000000 0.000000 0.000000
									}
								}
							}
						}
					}
				}
				JOINT RightShoulder
				{
					OFFSET 0.000000 0.000000 0.000000
					CHANNELS 3 Zrotation Yrotation Xrotation
					JOINT RightArm
					{
						OFFSET -3.136600 1.374050 -0.404650
						CHANNELS 3 Zrotation Yrotation Xrotation
						JOINT RightForeArm
						{
							OFFSET -5.241900 -0.000000 -0.000000
							CHANNELS 3 Zrotation Yrotation Xrotation
							JOINT RightHand
							{
								OFFSET -3.444170 -0.000000 -0.000000
								CHANNELS 3 Zrotation Yrotation Xrotation
								JOINT RightFingerBase
								{
									OFFSET 0.000000 0.000000 0.000000
									CHANNELS 3 Zrotation Yrotation Xrotation
									JOINT RightHandIndex1
									{
										OFFSET -0.622530 -0.000000 -0.000000
										CHANNELS 3 Zrotation Yrotation Xrotation
										End Site
										{
											OFFSET 0.000000 0.000000 0.000000
										}
									}
								}
								JOINT RThumb
								{
									OFFSET 0.000000 0.000000 0.000000
									CHANNELS 3 Zrotation Yrotation Xrotation
									End Site
									{
										OFFSET 0.000000 0.000000 0.000000
									}
								}
							}
						}
					}
				}
			}
		}
	}
}
MOTION
Frames: 11
Frame Time: 0.008333
-0.390529 18.383847 7.902967 -7.620896 -2.775167 9.624170 8.147987 4.738742 -1.768234 -26.330395 -37.490956 21.169158 -3.724044 -2.564240 -2.469409 -13.766446 42.607175 -22.815866 0.225900 3.059100 8.443400 0.003602 -4.612534 0.558018 22.366991 25.223090 2.895396 3.380860 -0.790470 3.459833 6.195315 -20.838590 0.212369 -0.000600 0.154000 -0.423000 -8.763544 1.364357 5.793718 29.880178 6.862486 -20.518463 -11.760933 -1.761850 -9.612253 -27.991244 -14.135192 -5.557579 18.680174 -22.252381 25.966663 3.787400 -9.785900 8.651600 -10.271681 -6.230880 0.986070 -88.531221 13.627451 21.394256 11.764078 -13.129573 -2.058526 0.209711 1.425344 25.269921 13.661854 -10.532033 -2.968900 -7.125000 0.000000 0.000000 -9.134700 17.785700 5.984600 10.717830 7.393423 1.600066 78.032539 -13.788900 15.100516 -11.918102 16.262007 -2.196048 0.844549 1.523855 41.041712 9.978151 -28.344587 -5.220700 7.125000 0.000000 0.000000 43.181100 -54.573000 -11.802800 
-0.391789 18.383218 7.901918 -7.694044 -2.799323 9.624324 8.155859 4.738786 -1.769452 -26.203121 -37.438784 21.116819 -3.724250 -2.567138 -2.477778 -13.767504 42.602483 -22.805328 0.208800 2.942000 8.117400 0.014897 -4.617030 0.553491 22.478059 25.354447 2.970727 3.379394 -0.809403 3.510077 6.200618 -20.848927 0.128418 -0.000800 0.182500 -0.501400 -8.787191 1.368099 5.815521 29.991845 6.879853 -20.532758 -11.775204 -1.774303 -9.624157 -27.938057 -14.047919 -5.468880 18.842362 -22.169534 25.774236 3.839400 -9.737800 8.599100 -10.267607 -6.231202 0.986066 -88.553600 13.666125 21.210598 11.774806 -13.146747 -2.061740 0.233637 1.417092 25.665021 13.545102 -10.530622 -2.939600 -7.125000 0.000000 0.000000 -9.226800 17.795600 6.044600 10.677655 7.393063 1.595627 78.105585 -13.879049 15.011645 -11.999713 16.372038 -2.220494 0.837743 1.521454 41.199021 10.001774 -28.235929 -5.218600 7.125000 0.000000 0.000000 43.106000 -54.478000 -11.667300 
-0.390949 18.383637 7.900343 -7.631624 -2.846538 9.645830 8.142444 4.731983 -1.781911 -26.245117 -37.399024 21.081645 -3.725097 -2.563620 -2.472840 -13.764438 42.608916 -22.850879 0.205200 2.917000 8.047600 -0.002131 -4.610057 0.534325 22.403683 25.316127 2.915749 3.378385 -0.809172 3.498787 6.201005 -20.861402 0.221518 -0.002500 0.324300 -0.891000 -8.793691 1.376751 5.892882 29.829654 6.896480 -20.702840 -11.727531 -1.756740 -9.590351 -27.921157 -13.969968 -5.322253 19.094471 -22.129166 25.543078 3.907000 -9.707800 8.534500 -10.250611 -6.229179 0.998219 -88.552717 13.712519 21.111224 11.790929 -13.165474 -2.066465 0.243522 1.412942 25.931157 13.518018 -10.508251 -2.927000 -7.125000 0.000000 0.000000 -9.249000 17.821400 6.054200 10.705406 7.387000 1.599902 78.135336 -13.959997 15.011308 -12.034351 16.419891 -2.233005 0.832101 1.530092 41.184613 10.145071 -28.230632 -5.296300 7.125000 0.000000 0.000000 43.237300 -54.446200 -11.677800 
-0.389374 18.384477 7.899188 -7.511497 -2.878236 9.680190 8.116011 4.722187 -1.802746 -26.365167 -37.403776 21.069893 -3.726172 -2.553627 -2.455100 -13.737611 42.584033 -22.951131 0.213600 2.975100 8.209500 -0.034567 -4.601799 0.503985 22.277510 25.280284 2.871672 3.379792 -0.799648 3.463592 6.212557 -20.897623 0.279374 -0.003800 0.399500 -1.097700 -8.775666 1.396179 6.011553 29.500703 6.927001 -20.999630 -11.645992 -1.717683 -9.519260 -27.895893 -13.910519 -5.119679 19.325221 -22.130366 25.321806 3.963300 -9.701800 8.465900 -10.224003 -6.225173 1.021453 -88.518559 13.795310 21.283063 11.785183 -13.152696 -2.065656 0.213658 1.426680 25.612657 13.720376 -10.499120 -2.974900 -7.125000 0.000000 0.000000 -9.090800 17.814500 5.949300 10.767369 7.375304 1.609812 78.151663 -14.051918 15.022836 -12.038487 16.430104 -2.241035 0.825413 1.558215 41.106807 10.632155 -28.355411 -5.580200 7.125000 0.000000 0.000000 43.806700 -54.454800 -11.892700 
-0.391789 18.388257 7.900448 -7.170736 -2.985567 9.857314 8.031875 4.705354 -1.852626 -26.641382 -37.547839 20.995209 -3.723250 -2.528948 -2.451239 -13.785996 42.718671 -23.046658 0.208000 2.936600 8.102300 -0.126955 -4.549898 0.413158 21.859456 25.105350 2.564165 3.373110 -0.818791 3.495772 6.153395 -20.724347 0.480214 -0.004600 0.440000 -1.209000 -8.756750 1.431324 6.139806 28.477800 6.987316 -21.754981 -11.353825 -1.589780 -9.236754 -27.708798 -13.912917 -4.921886 19.544509 -22.245522 25.318404 3.975200 -9.734900 8.438200 -10.164472 -6.226971 1.095769 -88.299064 13.913100 21.655440 11.816641 -13.179438 -2.072807 0.183443 1.418579 25.594536 13.879443 -10.285757 -2.956300 -7.125000 0.000000 0.000000 -8.967500 18.040500 5.821400 10.976817 7.359019 1.647527 78.190627 -14.121858 15.090921 -11.951689 16.306012 -2.217992 0.828942 1.574521 40.759266 10.759853 -28.518007 -5.675300 7.125000 0.000000 0.000000 44.077000 -54.566600 -12.121700 
-0.394414 18.392246 7.916825 -6.904929 -2.898654 10.450945 7.764220 4.585100 -2.123331 -26.575059 -37.817570 20.795775 -3.706787 -2.485702 -2.554005 -13.905832 42.988986 -22.951875 0.189900 2.806600 7.740800 -0.449035 -4.450470 0.069638 21.726376 24.396216 1.978930 3.366776 -0.826500 3.480492 5.938219 -20.192337 0.870842 -0.006600 0.525100 -1.442800 -7.531648 1.616827 7.211470 25.271611 7.300027 -25.284949 -10.833657 -1.333148 -8.590208 -27.270769 -13.806905 -3.878421 19.663978 -22.496099 25.605641 3.989400 -9.849700 8.429200 -9.779727 -6.199396 1.413237 -87.884799 14.879286 22.535625 11.932300 -13.338977 -2.109657 0.153137 1.369524 25.897318 13.938444 -9.773832 -2.827900 -7.125000 0.000000 0.000000 -8.927300 18.618000 5.679300 11.403797 7.304231 1.834312 78.724004 -15.021640 14.945258 -11.842729 16.115802 -2.180044 0.837895 1.570044 40.169419 10.322703 -28.645573 -5.456900 7.125000 0.000000 0.000000 43.792400 -54.759800 -12.241500 
-0.390424 18.389621 7.921129 -7.166438 -2.738630 10.520127 7.702743 4.547468 -2.186328 -26.283044 -37.913741 20.899294 -3.703540 -2.495437 -2.620206 -13.944730 43.054491 -22.934328 0.193700 2.834400 7.818100 -0.531076 -4.446912 0.016005 22.086599 23.897727 1.854879 3.362525 -0.811217 3.468658 5.785285 -19.813971 1.050142 -0.007100 0.544700 -1.496700 -6.778864 1.712413 7.574533 24.492050 7.406769 -26.095711 -10.950112 -1.266562 -8.524822 -27.058055 -13.755758 -3.509234 19.791339 -22.562728 25.492312 4.011700 -9.878300 8.371300 -9.652367 -6.181633 1.486031 -87.700701 15.187814 22.979657 11.982749 -13.435384 -2.125399 0.132295 1.329689 26.003184 13.897192 -9.400763 -2.714800 -7.125000 0.000000 0.000000 -8.962400 19.047000 5.615700 11.485582 7.286841 1.864836 78.966502 -15.285435 14.843679 -11.786239 16.017541 -2.158936 0.840964 1.568742 39.877933 10.139973 -28.704911 -5.365800 7.125000 0.000000 0.000000 43.678100 -54.845400 -12.297900 
-0.386540 18.386157 7.919344 -7.460111 -2.625430 10.452393 7.729997 4.546741 -2.172818 -26.002280 -37.890107 20.950827 -3.703455 -2.510480 -2.643890 -13.937423 43.012148 -22.865079 0.195700 2.848900 7.858500 -0.502511 -4.470373 0.052159 22.428782 23.802630 1.940497 3.363858 -0.793816 3.443032 5.762240 -19.770745 1.029266 -0.008100 0.582400 -1.600500 -6.522862 1.743102 7.599078 24.790399 7.462599 -25.872874 -11.187380 -1.292337 -8.649154 -26.903104 -13.774989 -3.670789 19.631899 -22.519813 25.509036 3.959300 -9.859800 8.367500 -9.673891 -6.160877 1.469928 -87.689629 15.186446 23.040304 11.963290 -13.429847 -2.121753 0.129431 1.331149 25.982734 13.910625 -9.405411 -2.719200 -7.125000 0.000000 0.000000 -8.951000 19.041200 5.609600 11.417994 7.290120 1.854642 79.037938 -15.291936 14.654032 -11.772827 15.994431 -2.152337 0.843578 1.565786 40.002425 10.136704 -28.729834 -5.367800 7.125000 0.000000 0.000000 43.696300 -54.864000 -12.326100 
-0.387065 18.385107 7.918715 -7.536273 -2.608233 10.466242 7.737926 4.548159 -2.167849 -25.881297 -37.887594 20.898998 -3.702087 -2.514154 -2.658246 -13.950221 43.022534 -22.805623 0.188800 2.798500 7.718200 -0.488769 -4.471678 0.055559 22.505231 23.836501 1.942633 3.364826 -0.791222 3.432489 5.775479 -19.815627 1.020839 -0.006900 0.536000 -1.472700 -6.500150 1.757409 7.569565 24.880852 7.487486 -25.798716 -11.215663 -1.293714 -8.685304 -26.627547 -13.813663 -3.942620 19.333325 -22.455121 25.647710 3.860500 -9.830300 8.387700 -9.697269 -6.146733 1.472776 -87.686830 15.170894 23.017291 11.941228 -13.407276 -2.124213 0.133584 1.375797 26.014445 14.142761 -9.724677 -2.860800 -7.125000 0.000000 0.000000 -8.768800 18.658500 5.568000 11.384329 7.291429 1.857283 79.109688 -15.288743 14.348181 -11.729331 15.933225 -2.136117 0.852603 1.553939 40.393162 10.104524 -28.717940 -5.346900 7.125000 0.000000 0.000000 43.650100 -54.857700 -12.301600 
-0.387800 18.385317 7.918820 -7.520446 -2.606115 10.466566 7.737838 4.553553 -2.159877 -25.882772 -37.892296 20.888980 -3.701462 -2.520632 -2.678091 -13.964945 43.045315 -22.764428 0.183300 2.757700 7.605000 -0.487257 -4.470941 0.061290 22.479720 23.840625 1.940968 3.365707 -0.784866 3.416820 5.783863 -19.838331 1.030165 -0.004900 0.451800 -1.241400 -6.529404 1.754317 7.524455 24.881803 7.472585 -25.712403 -11.202592 -1.291159 -8.706407 -26.662374 -13.762853 -4.087421 19.494178 -22.367978 25.685240 3.903500 -9.767000 8.410900 -9.704924 -6.136947 1.473902 -87.693213 15.151482 22.927477 11.939257 -13.405561 -2.131247 0.142956 1.410805 26.060186 14.300498 -10.010956 -2.977900 -7.125000 0.000000 0.000000 -8.647300 18.319900 5.554600 11.400880 7.294626 1.858808 79.139179 -15.269203 14.049492 -11.682429 15.864312 -2.118701 0.858287 1.545369 40.717898 10.109420 -28.659941 -5.339500 7.125000 0.000000 0.000000 43.597700 -54.809100 -12.226100 
-0.391159 18.388992 7.920394 -7.139948 -2.700164 10.613526 7.677333 4.547697 -2.193612 -26.237180 -38.028321 20.843106 -3.701425 -2.501846 -2.667216 -13.976477 43.119073 -22.938202 0.188900 2.799200 7.720200 -0.548600 -4.439333 -0.013114 22.065606 24.001148 1.847422 3.368622 -0.790930 3.403052 5.842370 -19.975275 1.003443 -0.004800 0.445900 -1.225100 -6.695164 1.733980 7.571922 24.188989 7.410056 -26.228881 -10.860239 -1.226402 -8.510722 -26.394365 -13.704782 -3.969428 19.598816 -22.301682 25.403935 3.911500 -9.731500 8.312200 -9.665809 -6.148573 1.519111 -87.661123 15.208783 22.938430 11.955089 -13.401294 -2.130961 0.143688 1.399491 26.019302 14.226871 -9.944840 -2.941600 -7.125000 0.000000 0.000000 -8.704600 18.402200 5.576300 11.511434 7.277817 1.881356 79.154199 -15.347501 13.887514 -11.646018 15.819306 -2.108182 0.860975 1.540507 40.764938 10.043223 -28.610940 -5.295200 7.125000 0.000000 0.000000 43.490300 -54.784200 -12.157800 
